<svg width="375" height="364" viewBox="0 0 375 364" fill="none" xmlns="http://www.w3.org/2000/svg">
<g filter="url(#filter0_f_41_118)">
<ellipse cx="93.8354" cy="224.31" rx="85.4453" ry="14.8743" transform="rotate(-1.6373 93.8354 224.31)" fill="url(#paint0_linear_41_118)" fill-opacity="0.33"/>
</g>
<g filter="url(#filter1_f_41_118)">
<path d="M965 -50.5C965 106.625 837.625 234 680.5 234C523.375 234 396 106.625 396 -50.5C396 -207.625 523.375 -335 680.5 -335C837.625 -335 965 -207.625 965 -50.5Z" fill="url(#paint1_linear_41_118)" fill-opacity="0.33"/>
<path d="M654 -184.5C654 -27.375 526.625 100 369.5 100C212.375 100 85 -27.375 85 -184.5C85 -341.625 212.375 -469 369.5 -469C526.625 -469 654 -341.625 654 -184.5Z" fill="url(#paint2_linear_41_118)" fill-opacity="0.33"/>
</g>
<g filter="url(#filter2_f_41_118)">
<path d="M16 72.2255C16 109.104 -14.1068 139 -51.2455 139C-88.3841 139 -118.491 109.104 -118.491 72.2255C-118.491 35.3469 -88.3841 5.45093 -51.2455 5.45093C-14.1068 5.45093 16 35.3469 16 72.2255Z" fill="url(#paint3_linear_41_118)" fill-opacity="0.33"/>
<path d="M-57.5091 40.7745C-57.5091 77.6531 -87.6159 107.549 -124.755 107.549C-161.893 107.549 -192 77.6531 -192 40.7745C-192 3.89598 -161.893 -26 -124.755 -26C-87.6159 -26 -57.5091 3.89598 -57.5091 40.7745Z" fill="url(#paint4_linear_41_118)" fill-opacity="0.33"/>
</g>
<defs>
<filter id="filter0_f_41_118" x="-115.276" y="85.54" width="418.223" height="277.539" filterUnits="userSpaceOnUse" color-interpolation-filters="sRGB">
<feFlood flood-opacity="0" result="BackgroundImageFix"/>
<feBlend mode="normal" in="SourceGraphic" in2="BackgroundImageFix" result="shape"/>
<feGaussianBlur stdDeviation="61.85" result="effect1_foregroundBlur_41_118"/>
</filter>
<filter id="filter1_f_41_118" x="-38.7" y="-592.7" width="1127.4" height="950.4" filterUnits="userSpaceOnUse" color-interpolation-filters="sRGB">
<feFlood flood-opacity="0" result="BackgroundImageFix"/>
<feBlend mode="normal" in="SourceGraphic" in2="BackgroundImageFix" result="shape"/>
<feGaussianBlur stdDeviation="61.85" result="effect1_foregroundBlur_41_118"/>
</filter>
<filter id="filter2_f_41_118" x="-315.7" y="-149.7" width="455.4" height="412.4" filterUnits="userSpaceOnUse" color-interpolation-filters="sRGB">
<feFlood flood-opacity="0" result="BackgroundImageFix"/>
<feBlend mode="normal" in="SourceGraphic" in2="BackgroundImageFix" result="shape"/>
<feGaussianBlur stdDeviation="61.85" result="effect1_foregroundBlur_41_118"/>
</filter>
<linearGradient id="paint0_linear_41_118" x1="93.8354" y1="209.435" x2="93.8354" y2="239.184" gradientUnits="userSpaceOnUse">
<stop stop-color="#3CE96A"/>
<stop offset="1" stop-color="#3CE9B8"/>
</linearGradient>
<linearGradient id="paint1_linear_41_118" x1="369.5" y1="-469" x2="369.5" y2="100" gradientUnits="userSpaceOnUse">
<stop stop-color="#3CE96A"/>
<stop offset="1" stop-color="#3CE9B8"/>
</linearGradient>
<linearGradient id="paint2_linear_41_118" x1="369.5" y1="-469" x2="369.5" y2="100" gradientUnits="userSpaceOnUse">
<stop stop-color="#3CE96A"/>
<stop offset="1" stop-color="#3CE9B8"/>
</linearGradient>
<linearGradient id="paint3_linear_41_118" x1="-124.755" y1="-26" x2="-124.755" y2="107.549" gradientUnits="userSpaceOnUse">
<stop stop-color="#3CE96A"/>
<stop offset="1" stop-color="#3CE9B8"/>
</linearGradient>
<linearGradient id="paint4_linear_41_118" x1="-124.755" y1="-26" x2="-124.755" y2="107.549" gradientUnits="userSpaceOnUse">
<stop stop-color="#3CE96A"/>
<stop offset="1" stop-color="#3CE9B8"/>
</linearGradient>
</defs>
</svg>
