<svg width="177" height="55" viewBox="0 0 177 55" fill="none" xmlns="http://www.w3.org/2000/svg">
<path d="M83.7389 21.116C82.3517 21.116 81.0848 21.3102 79.9382 21.6986C78.81 22.0685 77.7188 22.7066 76.6645 23.6128L75.4161 21.9483C76.4703 21.042 77.7095 20.33 79.1336 19.8121C80.5762 19.2942 82.2038 19.0353 84.0163 19.0353C85.4404 19.0353 86.6888 19.1648 87.7615 19.4237C88.8342 19.6826 89.7312 20.0433 90.4525 20.5057C91.1738 20.968 91.7102 21.5136 92.0616 22.1425C92.4315 22.7713 92.6164 23.4463 92.6164 24.1677C92.6164 25.3513 92.3298 26.3316 91.7564 27.1083C91.1831 27.8666 90.2676 28.4585 89.0099 28.8839C90.397 29.2353 91.479 29.8271 92.2558 30.6594C93.0511 31.4732 93.4487 32.5459 93.4487 33.8775C93.4487 34.6728 93.2638 35.4218 92.8939 36.1246C92.524 36.8089 91.9414 37.41 91.1461 37.9279C90.3693 38.4273 89.3798 38.8249 88.1776 39.1208C86.9755 39.4167 85.5421 39.5647 83.8776 39.5647C82.0651 39.5647 80.3913 39.278 78.8562 38.7047C77.3396 38.1313 76.0542 37.3545 75 36.3743L76.3871 34.7098C77.4413 35.69 78.5603 36.4021 79.744 36.8459C80.9276 37.2713 82.213 37.484 83.6001 37.484C85.5421 37.484 86.9477 37.1141 87.817 36.3743C88.7048 35.6345 89.1486 34.7098 89.1486 33.6001C89.1486 32.4904 88.7972 31.6396 88.0944 31.0478C87.3916 30.4374 86.3097 30.1323 84.8486 30.1323H79.1614V28.0516H84.2937C86.9755 28.0516 88.3164 26.8494 88.3164 24.4451C88.3164 23.4648 87.9187 22.6696 87.1234 22.0592C86.3282 21.4304 85.2 21.116 83.7389 21.116Z" fill="white"/>
<path d="M96.2327 27.358C96.2327 24.7133 97.0095 22.6696 98.5631 21.227C100.117 19.7659 102.392 19.0353 105.388 19.0353C106.775 19.0353 108.153 19.248 109.521 19.6734C110.89 20.0988 112.101 20.7646 113.156 21.6708L111.907 23.3354C111.389 22.8915 110.844 22.5308 110.27 22.2534C109.716 21.9575 109.161 21.7263 108.606 21.5599C108.069 21.3934 107.542 21.2824 107.025 21.227C106.525 21.153 106.072 21.116 105.665 21.116C104.075 21.116 102.817 21.6246 101.892 22.6418C100.986 23.6405 100.533 25.2126 100.533 27.358C100.921 27.0991 101.384 26.8679 101.92 26.6645C102.364 26.498 102.909 26.3408 103.557 26.1928C104.223 26.0449 104.972 25.9709 105.804 25.9709C107.154 25.9709 108.356 26.1374 109.41 26.4703C110.465 26.8032 111.352 27.2656 112.074 27.8574C112.795 28.4492 113.341 29.1705 113.71 30.0213C114.08 30.8536 114.265 31.7691 114.265 32.7678C114.265 33.7665 114.071 34.6913 113.683 35.542C113.313 36.3743 112.749 37.0864 111.99 37.6782C111.232 38.27 110.289 38.7324 109.161 39.0653C108.051 39.3982 106.747 39.5647 105.249 39.5647C102.253 39.5647 99.9964 38.9081 98.4798 37.595C96.9817 36.2633 96.2327 34.3769 96.2327 31.9355V27.358ZM105.526 27.9129C104.694 27.9129 103.964 28.0146 103.335 28.218C102.724 28.403 102.207 28.6064 101.781 28.8284C101.3 29.0873 100.884 29.3832 100.533 29.7161V32.213C100.533 33.9515 100.967 35.2924 101.837 36.2356C102.724 37.1604 103.862 37.6227 105.249 37.6227C105.933 37.6227 106.562 37.5118 107.135 37.2898C107.727 37.0494 108.227 36.7165 108.634 36.2911C109.059 35.8657 109.383 35.3571 109.605 34.7653C109.845 34.1549 109.965 33.4891 109.965 32.7678C109.965 32.0465 109.845 31.3899 109.605 30.7981C109.383 30.1878 109.068 29.6699 108.661 29.2445C108.273 28.8191 107.811 28.4955 107.274 28.2735C106.738 28.0331 106.155 27.9129 105.526 27.9129Z" fill="white"/>
<path d="M126.756 20.9773C126.035 20.9773 125.332 21.1345 124.647 21.4489C123.963 21.7448 123.353 22.2257 122.816 22.8915C122.299 23.5573 121.873 24.4173 121.54 25.4715C121.226 26.5258 121.069 27.8019 121.069 29.3C121.069 30.7981 121.226 32.0742 121.54 33.1285C121.873 34.1827 122.299 35.0427 122.816 35.7085C123.353 36.3743 123.963 36.8644 124.647 37.1788C125.332 37.4748 126.035 37.6227 126.756 37.6227C127.477 37.6227 128.18 37.4748 128.864 37.1788C129.549 36.8644 130.15 36.3743 130.668 35.7085C131.204 35.0427 131.629 34.1827 131.944 33.1285C132.277 32.0742 132.443 30.7981 132.443 29.3C132.443 27.8019 132.277 26.5258 131.944 25.4715C131.629 24.4173 131.204 23.5573 130.668 22.8915C130.15 22.2257 129.549 21.7448 128.864 21.4489C128.18 21.1345 127.477 20.9773 126.756 20.9773ZM126.756 19.0353C128.217 19.0353 129.558 19.248 130.779 19.6734C131.999 20.0803 133.053 20.7091 133.941 21.5599C134.829 22.4106 135.513 23.4833 135.994 24.778C136.493 26.0541 136.743 27.5615 136.743 29.3C136.743 31.0385 136.493 32.5551 135.994 33.8498C135.513 35.1259 134.829 36.1894 133.941 37.0401C133.053 37.8909 131.999 38.529 130.779 38.9544C129.558 39.3612 128.217 39.5647 126.756 39.5647C125.295 39.5647 123.954 39.3612 122.733 38.9544C121.513 38.529 120.458 37.8909 119.571 37.0401C118.683 36.1894 117.989 35.1259 117.49 33.8498C117.009 32.5551 116.769 31.0385 116.769 29.3C116.769 27.5615 117.009 26.0541 117.49 24.778C117.989 23.4833 118.683 22.4106 119.571 21.5599C120.458 20.7091 121.513 20.0803 122.733 19.6734C123.954 19.248 125.295 19.0353 126.756 19.0353Z" fill="white"/>
<path d="M154.912 32.213H163.512L159.351 21.9483H159.074L154.912 32.213ZM162.403 19.5902L170.309 39.0098H166.314L164.483 34.2936H153.941L152.11 39.0098H148.115L156.022 19.5902H162.403Z" fill="white"/>
<path d="M176.56 39.0098H172.537V19.5902H176.56V39.0098Z" fill="white"/>
<mask id="mask0_38_331" style="mask-type:alpha" maskUnits="userSpaceOnUse" x="0" y="0" width="55" height="55">
<circle cx="27.2689" cy="27.2689" r="27.2689" fill="#2D323F"/>
</mask>
<g mask="url(#mask0_38_331)">
<circle cx="27.2689" cy="27.2689" r="27.2689" fill="#313131"/>
<path d="M32.0008 23.4993L29.3669 61.3938L38.5186 61.3938L40.5008 23.4993L35.0008 17.4993L-3.31757 19.7029L-3.31757 28.9999L32.0008 23.4993Z" fill="url(#paint0_linear_38_331)"/>
</g>
<defs>
<linearGradient id="paint0_linear_38_331" x1="11.35" y1="48.6044" x2="33.5806" y2="70.287" gradientUnits="userSpaceOnUse">
<stop stop-color="#29E7FB"/>
<stop offset="0.763243" stop-color="#5FFD35"/>
<stop offset="1" stop-color="#65FEB3"/>
</linearGradient>
</defs>
</svg>
